<svg xmlns="http://www.w3.org/2000/svg" width="19.939" height="15.881" viewBox="0 0 19.939 15.881"><defs><style>.a{fill:none;stroke:#d7dbec;}</style></defs><g transform="translate(-1.75 -5.125)"><path class="a" d="M26.219,10.083l-.977.972a3.439,3.439,0,0,1,0,4.87l.977.977a4.822,4.822,0,0,0,0-6.819Z" transform="translate(-9.168 -1.778)"/><path class="a" d="M29.471,6.961l-.96.96a6.124,6.124,0,0,1,0,8.649l.96.96a7.471,7.471,0,0,0,0-10.569Z" transform="translate(-10.472 -0.533)"/><path class="a" d="M14.425,10.026v-4.4H13.072L9.014,9.007H3.6L2.25,9.683v4.735l1.353.676,3.382,5.411H9.014L7.746,15.095H9.014L13.072,17.8h1.353V13.4a1.6,1.6,0,0,0,1.353-1.687A1.6,1.6,0,0,0,14.425,10.026Z"/></g></svg>