<svg xmlns="http://www.w3.org/2000/svg" width="10.658" height="12.181" viewBox="0 0 10.658 12.181"><defs><style>.a{fill:#383740;}</style></defs><path class="a" d="M10.373,11.42H9.9V.571A.571.571,0,0,0,9.326,0H1.332A.571.571,0,0,0,.761.571V11.42H.285A.286.286,0,0,0,0,11.705v.476H10.658v-.476A.286.286,0,0,0,10.373,11.42ZM3.045,1.808a.286.286,0,0,1,.285-.285h.952a.286.286,0,0,1,.285.285V2.76a.286.286,0,0,1-.285.285H3.331a.286.286,0,0,1-.285-.285Zm0,2.284a.286.286,0,0,1,.285-.285h.952a.286.286,0,0,1,.285.285v.952a.286.286,0,0,1-.285.285H3.331a.286.286,0,0,1-.285-.285ZM4.282,7.613H3.331a.286.286,0,0,1-.285-.285V6.376a.286.286,0,0,1,.285-.285h.952a.286.286,0,0,1,.285.285v.952A.286.286,0,0,1,4.282,7.613ZM6.09,11.42H4.568v-2a.286.286,0,0,1,.285-.285H5.8a.286.286,0,0,1,.285.285ZM7.613,7.328a.286.286,0,0,1-.285.285H6.376a.286.286,0,0,1-.285-.285V6.376a.286.286,0,0,1,.285-.285h.952a.286.286,0,0,1,.285.285Zm0-2.284a.286.286,0,0,1-.285.285H6.376a.286.286,0,0,1-.285-.285V4.092a.286.286,0,0,1,.285-.285h.952a.286.286,0,0,1,.285.285Zm0-2.284a.286.286,0,0,1-.285.285H6.376A.286.286,0,0,1,6.09,2.76V1.808a.286.286,0,0,1,.285-.285h.952a.286.286,0,0,1,.285.285Z"/></svg>