<svg xmlns="http://www.w3.org/2000/svg" width="15.12" height="17.28" viewBox="0 0 15.12 17.28"><defs><style>.a{fill:#21d59b;}</style></defs><path class="a" d="M14.715,16.2H14.04V.81A.81.81,0,0,0,13.23,0H1.89a.81.81,0,0,0-.81.81V16.2H.4A.405.405,0,0,0,0,16.6v.675H15.12V16.6A.405.405,0,0,0,14.715,16.2ZM4.32,2.565a.405.405,0,0,1,.4-.4h1.35a.405.405,0,0,1,.4.4v1.35a.405.405,0,0,1-.4.4H4.725a.405.405,0,0,1-.4-.4Zm0,3.24a.405.405,0,0,1,.4-.4h1.35a.405.405,0,0,1,.4.4v1.35a.405.405,0,0,1-.4.405H4.725a.405.405,0,0,1-.4-.405ZM6.075,10.8H4.725a.405.405,0,0,1-.4-.4V9.045a.405.405,0,0,1,.4-.4h1.35a.405.405,0,0,1,.4.4v1.35A.405.405,0,0,1,6.075,10.8ZM8.64,16.2H6.48V13.365a.405.405,0,0,1,.405-.4h1.35a.405.405,0,0,1,.4.4Zm2.16-5.8a.405.405,0,0,1-.4.4H9.045a.405.405,0,0,1-.4-.4V9.045a.405.405,0,0,1,.4-.4h1.35a.405.405,0,0,1,.4.4Zm0-3.24a.405.405,0,0,1-.4.405H9.045a.405.405,0,0,1-.4-.405V5.8a.405.405,0,0,1,.4-.4h1.35a.405.405,0,0,1,.4.4Zm0-3.24a.405.405,0,0,1-.4.4H9.045a.405.405,0,0,1-.4-.4V2.565a.405.405,0,0,1,.4-.4h1.35a.405.405,0,0,1,.4.4Z"/></svg>